<mxfile host="app.diagrams.net" agent="Mozilla/5.0 (Windows NT 10.0; Win64; x64) AppleWebKit/537.36 (KHTML, like Gecko) Chrome/126.0.0.0 YaBrowser/24.7.0.0 Safari/537.36" version="24.7.16">
  <diagram name="Страница — 1" id="1ZyhiHrq3p3qCcu-7uR-">
    <mxGraphModel dx="1302" dy="699" grid="1" gridSize="10" guides="1" tooltips="1" connect="1" arrows="1" fold="1" page="1" pageScale="1" pageWidth="850" pageHeight="1100" math="0" shadow="0">
      <root>
        <mxCell id="0" />
        <mxCell id="1" parent="0" />
        <mxCell id="fYELpKe_o-8hcV6DasQc-5" style="edgeStyle=orthogonalEdgeStyle;rounded=1;orthogonalLoop=1;jettySize=auto;html=1;entryX=0;entryY=0.5;entryDx=0;entryDy=0;curved=0;" edge="1" parent="1" source="fYELpKe_o-8hcV6DasQc-1" target="fYELpKe_o-8hcV6DasQc-4">
          <mxGeometry relative="1" as="geometry" />
        </mxCell>
        <mxCell id="fYELpKe_o-8hcV6DasQc-19" style="edgeStyle=orthogonalEdgeStyle;rounded=1;orthogonalLoop=1;jettySize=auto;html=1;entryX=0;entryY=0.5;entryDx=0;entryDy=0;curved=0;" edge="1" parent="1" source="fYELpKe_o-8hcV6DasQc-1" target="fYELpKe_o-8hcV6DasQc-18">
          <mxGeometry relative="1" as="geometry" />
        </mxCell>
        <mxCell id="fYELpKe_o-8hcV6DasQc-1" value="Пользователь&lt;div&gt;&lt;br&gt;&lt;/div&gt;" style="shape=umlActor;verticalLabelPosition=bottom;verticalAlign=top;html=1;" vertex="1" parent="1">
          <mxGeometry x="160" y="310" width="30" height="60" as="geometry" />
        </mxCell>
        <mxCell id="fYELpKe_o-8hcV6DasQc-4" value="Ввод цифр" style="ellipse;whiteSpace=wrap;html=1;align=center;" vertex="1" parent="1">
          <mxGeometry x="325" y="230" width="100" height="60" as="geometry" />
        </mxCell>
        <mxCell id="fYELpKe_o-8hcV6DasQc-15" style="edgeStyle=orthogonalEdgeStyle;rounded=1;orthogonalLoop=1;jettySize=auto;html=1;entryX=1;entryY=0.5;entryDx=0;entryDy=0;curved=0;" edge="1" parent="1" source="fYELpKe_o-8hcV6DasQc-6" target="fYELpKe_o-8hcV6DasQc-14">
          <mxGeometry relative="1" as="geometry" />
        </mxCell>
        <mxCell id="fYELpKe_o-8hcV6DasQc-26" style="edgeStyle=orthogonalEdgeStyle;rounded=1;orthogonalLoop=1;jettySize=auto;html=1;entryX=1;entryY=0.5;entryDx=0;entryDy=0;curved=0;" edge="1" parent="1" source="fYELpKe_o-8hcV6DasQc-6" target="fYELpKe_o-8hcV6DasQc-24">
          <mxGeometry relative="1" as="geometry" />
        </mxCell>
        <mxCell id="fYELpKe_o-8hcV6DasQc-34" style="edgeStyle=orthogonalEdgeStyle;rounded=1;orthogonalLoop=1;jettySize=auto;html=1;entryX=0.5;entryY=0;entryDx=0;entryDy=0;curved=0;" edge="1" parent="1" source="fYELpKe_o-8hcV6DasQc-6" target="fYELpKe_o-8hcV6DasQc-32">
          <mxGeometry relative="1" as="geometry" />
        </mxCell>
        <mxCell id="fYELpKe_o-8hcV6DasQc-6" value="&lt;div&gt;Микроконтроллер&lt;/div&gt;" style="shape=umlActor;verticalLabelPosition=bottom;verticalAlign=top;html=1;" vertex="1" parent="1">
          <mxGeometry x="720" y="330" width="30" height="60" as="geometry" />
        </mxCell>
        <mxCell id="fYELpKe_o-8hcV6DasQc-14" value="Обработка нажатий" style="ellipse;whiteSpace=wrap;html=1;align=center;" vertex="1" parent="1">
          <mxGeometry x="530" y="270" width="100" height="60" as="geometry" />
        </mxCell>
        <mxCell id="fYELpKe_o-8hcV6DasQc-17" value="&amp;lt;&amp;lt;include&amp;gt;&amp;gt;" style="html=1;verticalAlign=bottom;labelBackgroundColor=none;endArrow=open;endFill=0;dashed=1;rounded=1;exitX=1;exitY=0.5;exitDx=0;exitDy=0;entryX=0;entryY=0.5;entryDx=0;entryDy=0;edgeStyle=orthogonalEdgeStyle;curved=0;" edge="1" parent="1" source="fYELpKe_o-8hcV6DasQc-4" target="fYELpKe_o-8hcV6DasQc-14">
          <mxGeometry width="160" relative="1" as="geometry">
            <mxPoint x="450" y="140" as="sourcePoint" />
            <mxPoint x="510" y="220" as="targetPoint" />
          </mxGeometry>
        </mxCell>
        <mxCell id="fYELpKe_o-8hcV6DasQc-18" value="Нажатие кнопки начала отсчёта" style="ellipse;whiteSpace=wrap;html=1;align=center;" vertex="1" parent="1">
          <mxGeometry x="325" y="390" width="100" height="60" as="geometry" />
        </mxCell>
        <mxCell id="fYELpKe_o-8hcV6DasQc-20" value="&amp;lt;&amp;lt;include&amp;gt;&amp;gt;" style="html=1;verticalAlign=bottom;labelBackgroundColor=none;endArrow=open;endFill=0;dashed=1;rounded=1;exitX=1;exitY=0.5;exitDx=0;exitDy=0;edgeStyle=orthogonalEdgeStyle;entryX=0;entryY=0.5;entryDx=0;entryDy=0;" edge="1" parent="1" source="fYELpKe_o-8hcV6DasQc-18" target="fYELpKe_o-8hcV6DasQc-24">
          <mxGeometry width="160" relative="1" as="geometry">
            <mxPoint x="435" y="250" as="sourcePoint" />
            <mxPoint x="500" y="400" as="targetPoint" />
          </mxGeometry>
        </mxCell>
        <mxCell id="fYELpKe_o-8hcV6DasQc-21" value="&amp;lt;&amp;lt;include&amp;gt;&amp;gt;" style="html=1;verticalAlign=bottom;labelBackgroundColor=none;endArrow=open;endFill=0;dashed=1;rounded=1;entryX=1;entryY=0.5;entryDx=0;entryDy=0;edgeStyle=orthogonalEdgeStyle;curved=0;exitX=0.5;exitY=0;exitDx=0;exitDy=0;" edge="1" parent="1" source="fYELpKe_o-8hcV6DasQc-14" target="fYELpKe_o-8hcV6DasQc-22">
          <mxGeometry width="160" relative="1" as="geometry">
            <mxPoint x="580" y="170" as="sourcePoint" />
            <mxPoint x="635" y="110" as="targetPoint" />
          </mxGeometry>
        </mxCell>
        <mxCell id="fYELpKe_o-8hcV6DasQc-22" value="Отображения действия&amp;nbsp;" style="ellipse;whiteSpace=wrap;html=1;align=center;" vertex="1" parent="1">
          <mxGeometry x="325" y="120" width="100" height="60" as="geometry" />
        </mxCell>
        <mxCell id="fYELpKe_o-8hcV6DasQc-24" value="Начало отсчёта времени" style="ellipse;whiteSpace=wrap;html=1;align=center;" vertex="1" parent="1">
          <mxGeometry x="530" y="390" width="100" height="60" as="geometry" />
        </mxCell>
        <mxCell id="fYELpKe_o-8hcV6DasQc-29" style="edgeStyle=orthogonalEdgeStyle;rounded=1;orthogonalLoop=1;jettySize=auto;html=1;entryX=0;entryY=0.3333333333333333;entryDx=0;entryDy=0;entryPerimeter=0;curved=0;" edge="1" parent="1" source="fYELpKe_o-8hcV6DasQc-27" target="fYELpKe_o-8hcV6DasQc-1">
          <mxGeometry relative="1" as="geometry">
            <mxPoint x="120" y="330" as="targetPoint" />
            <Array as="points">
              <mxPoint x="120" y="530" />
              <mxPoint x="120" y="330" />
            </Array>
          </mxGeometry>
        </mxCell>
        <mxCell id="fYELpKe_o-8hcV6DasQc-27" value="Отображение текущего времени на экране. Мигание светодиодом" style="ellipse;whiteSpace=wrap;html=1;align=center;" vertex="1" parent="1">
          <mxGeometry x="310" y="500" width="160" height="60" as="geometry" />
        </mxCell>
        <mxCell id="fYELpKe_o-8hcV6DasQc-30" value="&amp;lt;&amp;lt;include&amp;gt;&amp;gt;" style="html=1;verticalAlign=bottom;labelBackgroundColor=none;endArrow=open;endFill=0;dashed=1;rounded=1;exitX=0.5;exitY=1;exitDx=0;exitDy=0;edgeStyle=orthogonalEdgeStyle;entryX=1;entryY=0.5;entryDx=0;entryDy=0;" edge="1" parent="1" source="fYELpKe_o-8hcV6DasQc-24" target="fYELpKe_o-8hcV6DasQc-27">
          <mxGeometry width="160" relative="1" as="geometry">
            <mxPoint x="580" y="570" as="sourcePoint" />
            <mxPoint x="690" y="480" as="targetPoint" />
          </mxGeometry>
        </mxCell>
        <mxCell id="fYELpKe_o-8hcV6DasQc-31" value="&amp;lt;&amp;lt;extend&amp;gt;&amp;gt;" style="html=1;verticalAlign=bottom;labelBackgroundColor=none;endArrow=open;endFill=0;dashed=1;rounded=1;exitX=1;exitY=0.5;exitDx=0;exitDy=0;entryX=0;entryY=0.5;entryDx=0;entryDy=0;edgeStyle=orthogonalEdgeStyle;" edge="1" parent="1" source="fYELpKe_o-8hcV6DasQc-24" target="fYELpKe_o-8hcV6DasQc-32">
          <mxGeometry width="160" relative="1" as="geometry">
            <mxPoint x="670" y="480" as="sourcePoint" />
            <mxPoint x="830" y="480" as="targetPoint" />
          </mxGeometry>
        </mxCell>
        <mxCell id="fYELpKe_o-8hcV6DasQc-32" value="Конец отсчёта" style="ellipse;whiteSpace=wrap;html=1;align=center;" vertex="1" parent="1">
          <mxGeometry x="685" y="490" width="100" height="60" as="geometry" />
        </mxCell>
        <mxCell id="fYELpKe_o-8hcV6DasQc-35" value="&lt;div&gt;Отключение светодиода&lt;/div&gt;Включение зуммера" style="ellipse;whiteSpace=wrap;html=1;align=center;" vertex="1" parent="1">
          <mxGeometry x="315" y="580" width="150" height="60" as="geometry" />
        </mxCell>
        <mxCell id="fYELpKe_o-8hcV6DasQc-36" value="&amp;lt;&amp;lt;include&amp;gt;&amp;gt;" style="html=1;verticalAlign=bottom;labelBackgroundColor=none;endArrow=open;endFill=0;dashed=1;rounded=1;exitX=0.5;exitY=1;exitDx=0;exitDy=0;edgeStyle=orthogonalEdgeStyle;entryX=1;entryY=0.5;entryDx=0;entryDy=0;" edge="1" parent="1" source="fYELpKe_o-8hcV6DasQc-32" target="fYELpKe_o-8hcV6DasQc-35">
          <mxGeometry width="160" relative="1" as="geometry">
            <mxPoint x="590" y="450" as="sourcePoint" />
            <mxPoint x="480" y="540" as="targetPoint" />
          </mxGeometry>
        </mxCell>
        <mxCell id="fYELpKe_o-8hcV6DasQc-39" style="edgeStyle=orthogonalEdgeStyle;rounded=1;orthogonalLoop=1;jettySize=auto;html=1;exitX=0;exitY=0.5;exitDx=0;exitDy=0;entryX=0;entryY=0.3333333333333333;entryDx=0;entryDy=0;entryPerimeter=0;curved=0;" edge="1" parent="1" source="fYELpKe_o-8hcV6DasQc-35" target="fYELpKe_o-8hcV6DasQc-1">
          <mxGeometry relative="1" as="geometry">
            <mxPoint x="90" y="330" as="targetPoint" />
            <mxPoint x="280" y="610" as="sourcePoint" />
            <Array as="points">
              <mxPoint x="120" y="610" />
              <mxPoint x="120" y="330" />
            </Array>
          </mxGeometry>
        </mxCell>
        <mxCell id="fYELpKe_o-8hcV6DasQc-40" style="edgeStyle=orthogonalEdgeStyle;rounded=1;orthogonalLoop=1;jettySize=auto;html=1;curved=0;exitX=0;exitY=0.5;exitDx=0;exitDy=0;entryX=0;entryY=0.3333333333333333;entryDx=0;entryDy=0;entryPerimeter=0;" edge="1" parent="1" source="fYELpKe_o-8hcV6DasQc-22" target="fYELpKe_o-8hcV6DasQc-1">
          <mxGeometry relative="1" as="geometry">
            <mxPoint x="120" y="330" as="targetPoint" />
            <mxPoint x="320" y="540" as="sourcePoint" />
            <Array as="points">
              <mxPoint x="120" y="150" />
              <mxPoint x="120" y="330" />
            </Array>
          </mxGeometry>
        </mxCell>
        <mxCell id="fYELpKe_o-8hcV6DasQc-41" value="Нажатие кнопки сброса" style="ellipse;whiteSpace=wrap;html=1;align=center;" vertex="1" parent="1">
          <mxGeometry x="325" y="310" width="100" height="60" as="geometry" />
        </mxCell>
        <mxCell id="fYELpKe_o-8hcV6DasQc-42" style="edgeStyle=orthogonalEdgeStyle;rounded=1;orthogonalLoop=1;jettySize=auto;html=1;entryX=0;entryY=0.5;entryDx=0;entryDy=0;curved=0;" edge="1" parent="1" source="fYELpKe_o-8hcV6DasQc-1" target="fYELpKe_o-8hcV6DasQc-41">
          <mxGeometry relative="1" as="geometry">
            <mxPoint x="200" y="350" as="sourcePoint" />
            <mxPoint x="335" y="240" as="targetPoint" />
          </mxGeometry>
        </mxCell>
        <mxCell id="fYELpKe_o-8hcV6DasQc-43" value="&amp;lt;&amp;lt;include&amp;gt;&amp;gt;" style="html=1;verticalAlign=bottom;labelBackgroundColor=none;endArrow=open;endFill=0;dashed=1;rounded=1;exitX=1;exitY=0.5;exitDx=0;exitDy=0;edgeStyle=orthogonalEdgeStyle;curved=0;entryX=0;entryY=0.5;entryDx=0;entryDy=0;" edge="1" parent="1" source="fYELpKe_o-8hcV6DasQc-41" target="fYELpKe_o-8hcV6DasQc-14">
          <mxGeometry width="160" relative="1" as="geometry">
            <mxPoint x="450" y="320" as="sourcePoint" />
            <mxPoint x="490" y="310" as="targetPoint" />
          </mxGeometry>
        </mxCell>
      </root>
    </mxGraphModel>
  </diagram>
</mxfile>
